<svg xmlns="http://www.w3.org/2000/svg" xmlns:xlink="http://www.w3.org/1999/xlink" width="200" zoomAndPan="magnify" viewBox="0 0 150 149.999998" height="200" preserveAspectRatio="xMidYMid meet" version="1.0"><defs><clipPath id="a66da9fec8"><path d="M 0.0585938 42.5 L 149.941406 42.5 L 149.941406 106.734375 L 0.0585938 106.734375 Z M 0.0585938 42.5 " clip-rule="nonzero"/></clipPath></defs><g clip-path="url(#a66da9fec8)"><path fill="#cccccc" d="M 117.824219 106.65625 L 32.175781 106.65625 C 14.4375 106.65625 0.0585938 92.292969 0.0585938 74.578125 C 0.0585938 56.863281 14.4375 42.5 32.175781 42.5 L 117.824219 42.5 C 135.5625 42.5 149.941406 56.863281 149.941406 74.578125 C 149.941406 92.292969 135.5625 106.65625 117.824219 106.65625 " fill-opacity="1" fill-rule="nonzero"/></g><path fill="#ffffff" d="M 6.871094 74.578125 C 6.871094 60.621094 18.199219 49.304688 32.175781 49.304688 C 46.152344 49.304688 57.480469 60.621094 57.480469 74.578125 C 57.480469 88.535156 46.152344 99.851562 32.175781 99.851562 C 18.199219 99.851562 6.871094 88.535156 6.871094 74.578125 " fill-opacity="1" fill-rule="nonzero"/></svg>