<svg xmlns="http://www.w3.org/2000/svg" xmlns:xlink="http://www.w3.org/1999/xlink" width="200" zoomAndPan="magnify" viewBox="0 0 150 149.999998" height="200" preserveAspectRatio="xMidYMid meet" version="1.0"><defs><clipPath id="a74a326df2"><path d="M 0.0585938 43.460938 L 149.941406 43.460938 L 149.941406 107.695312 L 0.0585938 107.695312 Z M 0.0585938 43.460938 " clip-rule="nonzero"/></clipPath></defs><g clip-path="url(#a74a326df2)"><path fill="#3ded9d" d="M 32.175781 43.542969 L 117.824219 43.542969 C 135.5625 43.542969 149.941406 57.902344 149.941406 75.621094 C 149.941406 93.335938 135.5625 107.695312 117.824219 107.695312 L 32.175781 107.695312 C 14.4375 107.695312 0.0585938 93.335938 0.0585938 75.621094 C 0.0585938 57.902344 14.4375 43.542969 32.175781 43.542969 " fill-opacity="1" fill-rule="nonzero"/></g><path fill="#ffffff" d="M 143.128906 75.621094 C 143.128906 89.578125 131.796875 100.894531 117.824219 100.894531 C 103.847656 100.894531 92.519531 89.578125 92.519531 75.621094 C 92.519531 61.660156 103.847656 50.347656 117.824219 50.347656 C 131.796875 50.347656 143.128906 61.660156 143.128906 75.621094 " fill-opacity="1" fill-rule="nonzero"/></svg>